<svg id="visual" viewBox="0 0 900 600" width="900" height="600" xmlns="http://www.w3.org/2000/svg" xmlns:xlink="http://www.w3.org/1999/xlink" version="1.1"><rect x="0" y="0" width="900" height="600" fill="#ffffff" fill-opacity="0"></rect><defs><linearGradient id="grad1_0" x1="33.3%" y1="0%" x2="100%" y2="100%"><stop offset="20%" stop-color="#ffffff" stop-opacity="1"></stop><stop offset="80%" stop-color="#ffffff" stop-opacity="1"></stop></linearGradient></defs><defs><linearGradient id="grad2_0" x1="0%" y1="0%" x2="66.7%" y2="100%"><stop offset="20%" stop-color="#ffffff" stop-opacity="1"></stop><stop offset="80%" stop-color="#ffffff" stop-opacity="1"></stop></linearGradient></defs><g transform="translate(900, 0)"><path d="M0 378.6C-31.4 340.6 -62.9 302.6 -91.8 282.5C-120.7 262.4 -147.1 260.2 -186.3 256.5C-225.6 252.7 -277.7 247.3 -306.3 222.5C-334.9 197.7 -340 153.4 -348.1 113.1C-356.2 72.8 -367.4 36.4 -378.6 0L0 0Z" fill="#dc2626"></path></g><g transform="translate(0, 600)"><path d="M0 -378.6C43.3 -379.7 86.6 -380.8 117 -360.1C147.4 -339.3 164.8 -296.7 197.5 -271.8C230.1 -247 278 -239.9 291.2 -211.6C304.5 -183.3 283.2 -133.7 292 -94.9C300.8 -56.1 339.7 -28 378.6 0L0 0Z" fill="#dc2626"></path></g></svg>